HIERARCHY
ROOT hip
{
  OFFSET 0 0 0
  CHANNELS 6 Xposition Yposition Zposition Zrotation Yrotation Xrotation
  JOINT abdomen
  {
    OFFSET 0 20.6881 -0.73152
    CHANNELS 3 Zrotation Xrotation Yrotation
    JOINT chest
    {
      OFFSET 0 11.7043 -0.48768
      CHANNELS 3 Zrotation Xrotation Yrotation
      JOINT neck
      {
        OFFSET 0 22.1894 -2.19456
        CHANNELS 3 Zrotation Xrotation Yrotation
        JOINT head
        {
          OFFSET -0.24384 7.07133 1.2192
          CHANNELS 3 Zrotation Xrotation Yrotation
          JOINT leftEye
          {
            OFFSET 4.14528 8.04674 8.04672
            CHANNELS 3 Zrotation Xrotation Yrotation
            End Site
            {
              OFFSET 1 0 0
            }
          }
          JOINT rightEye
          {
            OFFSET -3.6576 8.04674 8.04672
            CHANNELS 3 Zrotation Xrotation Yrotation
            End Site
            {
              OFFSET 1 0 0
            }
          }
        }
      }
      JOINT rCollar
      {
        OFFSET -2.68224 19.2634 -4.8768
        CHANNELS 3 Zrotation Xrotation Yrotation
        JOINT rShldr
        {
          OFFSET -8.77824 -1.95073 1.46304
          CHANNELS 3 Zrotation Xrotation Yrotation
          JOINT rForeArm
          {
            OFFSET -28.1742 -1.7115 0.48768
            CHANNELS 3 Zrotation Xrotation Yrotation
            JOINT rHand
            {
              OFFSET -22.5879 0.773209 7.07136
              CHANNELS 3 Zrotation Xrotation Yrotation
              JOINT rThumb1
              {
                OFFSET -1.2192 -0.487915 3.41376
                CHANNELS 3 Zrotation Xrotation Yrotation
                JOINT rThumb2
                {
                  OFFSET -3.37035 -0.52449 3.41376
                  CHANNELS 3 Zrotation Xrotation Yrotation
                  End Site
                  {
                    OFFSET -1.78271 -1.18214 1.43049
                  }
                }
              }
              JOINT rIndex1
              {
                OFFSET -7.75947 0.938293 5.60832
                CHANNELS 3 Zrotation Xrotation Yrotation
                JOINT rIndex2
                {
                  OFFSET -2.54057 -0.884171 1.56538
                  CHANNELS 3 Zrotation Xrotation Yrotation
                  End Site
                  {
                    OFFSET -1.62519 -0.234802 1.16502
                  }
                }
              }
              JOINT rMid1
              {
                OFFSET -8.24714 1.18213 3.41376
                CHANNELS 3 Zrotation Xrotation Yrotation
                JOINT rMid2
                {
                  OFFSET -3.10165 -0.590103 1.0647
                  CHANNELS 3 Zrotation Xrotation Yrotation
                  End Site
                  {
                    OFFSET -2.48547 -0.328903 0.83742
                  }
                }
              }
              JOINT rRing1
              {
                OFFSET -8.82822 0.546677 1.51678
                CHANNELS 3 Zrotation Xrotation Yrotation
                JOINT rRing2
                {
                  OFFSET -2.60934 -0.819778 -0.0198488
                  CHANNELS 3 Zrotation Xrotation Yrotation
                  End Site
                  {
                    OFFSET -2.33842 -0.294052 0.168128
                  }
                }
              }
              JOINT rPinky1
              {
                OFFSET -8.27202 -0.0477905 -0.4584
                CHANNELS 3 Zrotation Xrotation Yrotation
                JOINT rPinky2
                {
                  OFFSET -1.82734 -0.647385 -0.700984
                  CHANNELS 3 Zrotation Xrotation Yrotation
                  End Site
                  {
                    OFFSET -1.69225 -0.51767 -0.607171
                  }
                }
              }
            }
          }
        }
      }
      JOINT lCollar
      {
        OFFSET 2.68224 19.2634 -4.8768
        CHANNELS 3 Zrotation Xrotation Yrotation
        JOINT lShldr
        {
          OFFSET 8.77824 -1.95073 1.46304
          CHANNELS 3 Zrotation Xrotation Yrotation
          JOINT lForeArm
          {
            OFFSET 28.1742 -1.7115 0.48768
            CHANNELS 3 Zrotation Xrotation Yrotation
            JOINT lHand
            {
              OFFSET 22.5879 0.773209 7.07136
              CHANNELS 3 Zrotation Xrotation Yrotation
              JOINT lThumb1
              {
                OFFSET 1.2192 -0.487915 3.41376
                CHANNELS 3 Zrotation Xrotation Yrotation
                JOINT lThumb2
                {
                  OFFSET 3.37035 -0.52449 3.41376
                  CHANNELS 3 Zrotation Xrotation Yrotation
                  End Site
                  {
                    OFFSET 1.78271 -1.18214 1.43049
                  }
                }
              }
              JOINT lIndex1
              {
                OFFSET 7.75947 0.938293 5.60832
                CHANNELS 3 Zrotation Xrotation Yrotation
                JOINT lIndex2
                {
                  OFFSET 2.54057 -0.884171 1.56538
                  CHANNELS 3 Zrotation Xrotation Yrotation
                  End Site
                  {
                    OFFSET 1.62519 -0.234802 1.16502
                  }
                }
              }
              JOINT lMid1
              {
                OFFSET 8.24714 1.18213 3.41376
                CHANNELS 3 Zrotation Xrotation Yrotation
                JOINT lMid2
                {
                  OFFSET 3.10165 -0.590103 1.0647
                  CHANNELS 3 Zrotation Xrotation Yrotation
                  End Site
                  {
                    OFFSET 2.48547 -0.328903 0.83742
                  }
                }
              }
              JOINT lRing1
              {
                OFFSET 8.82822 0.546677 1.51678
                CHANNELS 3 Zrotation Xrotation Yrotation
                JOINT lRing2
                {
                  OFFSET 2.60934 -0.819778 -0.0198488
                  CHANNELS 3 Zrotation Xrotation Yrotation
                  End Site
                  {
                    OFFSET 2.33842 -0.294052 0.168128
                  }
                }
              }
              JOINT lPinky1
              {
                OFFSET 8.27202 -0.0477905 -0.4584
                CHANNELS 3 Zrotation Xrotation Yrotation
                JOINT lPinky2
                {
                  OFFSET 1.82734 -0.647385 -0.700984
                  CHANNELS 3 Zrotation Xrotation Yrotation
                  End Site
                  {
                    OFFSET 1.69225 -0.51767 -0.607171
                  }
                }
              }
            }
          }
        }
      }
    }
  }
  JOINT rButtock
  {
    OFFSET -8.77824 4.35084 1.2192
    CHANNELS 3 Zrotation Xrotation Yrotation
    JOINT rThigh
    {
      OFFSET 0 -1.70687 -2.19456
      CHANNELS 3 Zrotation Xrotation Yrotation
      JOINT rShin
      {
        OFFSET 0 -36.8199 0.73152
        CHANNELS 3 Zrotation Xrotation Yrotation
        JOINT rFoot
        {
          OFFSET 0.73152 -45.1104 -5.12064
          CHANNELS 3 Zrotation Xrotation Yrotation
          End Site
          {
            OFFSET -1.1221 -3.69964 12.103
          }
        }
      }
    }
  }
  JOINT lButtock
  {
    OFFSET 8.77824 4.35084 1.2192
    CHANNELS 3 Zrotation Xrotation Yrotation
    JOINT lThigh
    {
      OFFSET 0 -1.70687 -2.19456
      CHANNELS 3 Zrotation Xrotation Yrotation
      JOINT lShin
      {
        OFFSET 0 -36.8199 0.73152
        CHANNELS 3 Zrotation Xrotation Yrotation
        JOINT lFoot
        {
          OFFSET -0.73152 -45.1104 -5.12064
          CHANNELS 3 Zrotation Xrotation Yrotation
          End Site
          {
            OFFSET 1.1221 -3.69964 12.103
          }
        }
      }
    }
  }
}
MOTION
Frames:	4
Frame Time:	0.03333
-20.9305 57.8017 -69.9631 0.3657 13.5224 6.5727 -1.24357 19.8641 4.756140000000001 -0.643411 -12.7159 1.2995500000000002 -7.221689999999999 16.4133 -9.23823 8.32257 -34.48740000000001 -16.063399999999998 -0.0 0.0 0.0 -0.0 0.0 0.0 4.63873e-14 -1.9788e-13 -3.7596399999999993e-13 7.195669999999999 7.96115 90.7192 -28.2098 -39.8565 83.25670000000001 -3.24949 -44.48949999999999 -7.93516 -1.6010500000000002e-09 1.32172e-10 -3.6353900000000006e-10 -2.7558999999999996e-09 2.42796e-10 -6.70202e-10 -1.60104e-09 1.32162e-10 -3.63547e-10 7.730909999999999 5.47488 0.417314 -1.60104e-09 1.32159e-10 -3.6354e-10 2.90554 0.965183 0.102902 -1.60104e-09 1.3215800000000002e-10 -3.63537e-10 10.278600000000003 0.731801 0.0259123 -1.60106e-09 1.3215800000000002e-10 -3.6353e-10 2.22167 -0.733487 -0.20892000000000002 4.63178e-14 -1.97901e-13 -3.76135e-13 8.7709 52.8477 -106.48 24.590999999999998 -20.2501 -51.5155 0.115142 -9.57202 1.3582600000000002 -1.4830999999999998e-09 2.6626599999999996e-09 -1.65825e-10 -2.56629e-09 4.61671e-09 -2.8525e-10 -1.48311e-09 2.66268e-09 -1.65806e-10 -7.730909999999999 5.47488 -0.417314 -1.4830999999999998e-09 2.6626599999999996e-09 -1.65827e-10 -2.90554 0.965183 -0.102902 -1.4830999999999998e-09 2.6626599999999996e-09 -1.65827e-10 -10.278600000000003 0.731801 -0.0259123 -1.4830900000000003e-09 2.6626599999999996e-09 -1.65834e-10 -2.22167 -0.733487 0.20892000000000002 -2.03217e-16 0.0 -3.88251e-19 -26.915200000000002 -53.2272 -49.6944 -3.47708 77.4594 4.6303 -10.3307 -12.104400000000002 -29.194500000000005 2.03217e-16 0.0 3.88251e-19 1.30924 -58.32520000000002 0.975349 170.508 83.01710000000001 -171.276 4.185430000000001 -7.91489 17.9821
-21.1197 57.9558 -72.3085 0.7003 16.6583 6.8523000000000005 -0.7258170000000002 19.1714 3.64032 -0.37731 -12.5632 1.04881 -7.31775 16.4595 -9.62599 8.22378 -33.8161 -16.8917 -0.0 0.0 0.0 -0.0 0.0 0.0 9.38762e-14 -2.86241e-13 -5.85172e-13 8.18391 4.75882 91.47260000000001 -28.4309 -36.0335 77.0655 -3.14947 -43.968 -7.79142 -2.4757999999999997e-09 -5.55643e-12 -1.20423e-09 -4.23714e-09 -1.3390099999999998e-12 -2.14557e-09 -2.4757900000000006e-09 -5.564379999999999e-12 -1.20425e-09 7.730909999999999 5.47488 0.417314 -2.4757900000000006e-09 -5.568460000000001e-12 -1.20423e-09 2.90554 0.965183 0.102902 -2.4757900000000006e-09 -5.56855e-12 -1.20423e-09 10.278600000000003 0.731801 0.0259123 -2.4757999999999997e-09 -5.56756e-12 -1.2042199999999998e-09 2.22167 -0.733487 -0.20892000000000002 9.37331e-14 -2.86259e-13 -5.854210000000001e-13 16.554500000000004 48.1276 -114.862 23.7954 -18.7199 -48.9687 0.100624 -9.0105 1.27699 -2.3253e-09 9.117939999999999e-10 -8.9094e-10 -4.01508e-09 1.57319e-09 -1.54325e-09 -2.32531e-09 9.118109999999999e-10 -8.909270000000001e-10 -7.730909999999999 5.47488 -0.417314 -2.3253e-09 9.117920000000002e-10 -8.909430000000001e-10 -2.90554 0.965183 -0.102902 -2.32531e-09 9.117920000000002e-10 -8.90941e-10 -10.278600000000003 0.731801 -0.0259123 -2.3253e-09 9.11793e-10 -8.909500000000001e-10 -2.22167 -0.733487 0.20892000000000002 -2.03217e-16 0.0 -3.88251e-19 -30.742400000000004 -53.2643 -54.13190000000001 -3.21998 76.4493 4.21975 -9.724919999999997 -10.676 -28.6817 2.03217e-16 0.0 3.88251e-19 4.67079 -52.2036 3.0158500000000004 172.231 81.53679999999999 -173.344 4.54819 -8.99894 19.8758
-21.2689 58.031 -74.541 0.9226000000000001 19.729600000000005 6.9196 -0.0972305 18.5303 2.37035 0.0831116 -12.3172 0.790467 -7.43389 16.4626 -9.89008 8.10423 -33.1025 -17.469899999999996 -0.0 0.0 0.0 -0.0 0.0 0.0 3.77994e-14 -2.25424e-13 5.57902e-14 8.92641 1.80457 92.46910000000001 -28.303300000000004 -32.504400000000004 70.8135 -3.28671 -44.65259999999999 -7.984779999999999 8.93123e-10 -4.081639999999999e-11 1.8815e-09 1.46356e-09 -8.744799999999999e-11 3.2766800000000003e-09 8.931320000000001e-10 -4.0817300000000006e-11 1.8814900000000003e-09 7.730909999999999 5.47488 0.417314 8.931260000000001e-10 -4.08225e-11 1.88151e-09 2.90554 0.965183 0.102902 8.93128e-10 -4.0820300000000006e-11 1.88151e-09 10.278600000000003 0.731801 0.0259123 8.93117e-10 -4.08193e-11 1.88152e-09 2.22167 -0.733487 -0.20892000000000002 3.7644999999999994e-14 -2.2542100000000003e-13 5.55261e-14 22.2538 43.27920000000001 -121.32400000000001 23.0163 -17.368799999999997 -46.6206 0.09173439999999998 -7.9058 1.11847 -4.2936599999999995e-10 9.51586e-10 4.69333e-10 -7.44245e-10 1.64374e-09 8.086400000000001e-10 -4.29374e-10 9.51596e-10 4.69342e-10 -7.730909999999999 5.47488 -0.417314 -4.2936599999999995e-10 9.51586e-10 4.69334e-10 -2.90554 0.965183 -0.102902 -4.29374e-10 9.515850000000003e-10 4.69333e-10 -10.278600000000003 0.731801 -0.0259123 -4.2936199999999997e-10 9.515850000000003e-10 4.69321e-10 -2.22167 -0.733487 0.20892000000000002 -2.03217e-16 0.0 -3.88251e-19 -34.3072 -52.9918 -58.2596 -3.05127 75.5782 3.8566399999999996 -9.194999999999999 -9.19061 -28.505000000000003 2.03217e-16 0.0 3.88251e-19 8.25458 -45.4941 4.36628 172.647 81.4006 -174.159 4.732219999999999 -10.0076 21.1241
-21.3571 58.044200000000004 -76.6728 1.1284 22.6865 6.8224 0.425979 17.8983 1.04732 0.6682970000000001 -12.0859 0.533129 -7.564219999999999 16.4826 -10.0858 8.103759999999998 -32.3299 -17.8796 -0.0 0.0 0.0 -0.0 0.0 0.0 -3.01248e-14 -1.22461e-13 6.585739999999999e-13 9.57788 0.0235128 91.2573 -27.8057 -29.558400000000006 66.5446 -3.63278 -46.35309999999999 -8.47286 3.89098e-09 -3.86754e-11 4.50621e-09 6.54411e-09 -1.00178e-10 7.891e-09 3.89099e-09 -3.86704e-11 4.50619e-09 7.730909999999999 5.47488 0.417314 3.89098e-09 -3.8676e-11 4.506220000000001e-09 2.90554 0.965183 0.102902 3.89098e-09 -3.86723e-11 4.50621e-09 10.278600000000003 0.731801 0.0259123 3.89097e-09 -3.8671199999999995e-11 4.50623e-09 2.22167 -0.733487 -0.20892000000000002 -3.0258200000000004e-14 -1.22443e-13 6.58325e-13 26.1444 39.1433 -125.816 22.4484 -16.4458 -45.0193 0.03357650000000001 -5.22312 0.736123 1.50596e-09 1.0652e-09 1.64911e-09 2.59323e-09 1.8466899999999998e-09 2.85008e-09 1.50596e-09 1.0652e-09 1.64912e-09 -7.730909999999999 5.47488 -0.417314 1.50596e-09 1.0652e-09 1.64912e-09 -2.90554 0.965183 -0.102902 1.50595e-09 1.0652e-09 1.64912e-09 -10.278600000000003 0.731801 -0.0259123 1.50596e-09 1.0652e-09 1.6491e-09 -2.22167 -0.733487 0.20892000000000002 -2.03217e-16 0.0 -3.88251e-19 -37.6777 -52.4684 -62.0136 -2.93811 74.7935 3.52679 -8.69092 -7.729050000000002 -28.4601 2.03217e-16 0.0 3.88251e-19 11.9713 -38.5235 5.39694 171.933 82.6644 -173.86700000000002 4.79173 -10.804299999999998 22.1379
